<svg fill="none" height="100%" width="100%" viewBox="0 0 480 480" xmlns:xlink="http://www.w3.org/1999/xlink" xmlns="http://www.w3.org/2000/svg"><g id="i0"><g transform="translate(240,243.107)"><g transform="scale(1,1)"><animateTransform repeatCount="indefinite" type="scale" attributeName="transform" dur="2.033s" begin="0s" calcMode="spline" values="1 1; 1 1; 0.8 0.8; 1 1; 1 1" keyTimes="0; 0.081967; 0.483607; 0.90164; 1" keySplines="0 0 1 1; 0.239 0 0.922 1; 0.092 0 0.803 1; 0 0 1 1" fill="freeze" /><g transform="translate(0,0)"><g transform="matrix(1,0,0,1,0,62.893)" id="i1"><g id="i1" transform="matrix(4,0,0,4,0,0)"><path d="M9,9.75C9,9.75,9,-6.75,9,-6.75C9,-8.407,7.657,-9.75,6,-9.75C6,-9.75,0,-9.75,0,-9.75C0,-9.75,-6,-9.75,-6,-9.75C-7.657,-9.75,-9,-8.407,-9,-6.75C-9,-6.75,-9,9.75,-9,9.75" stroke-linejoin="round" stroke-linecap="round" stroke-width="3" stroke="#fef5bd"><animate repeatCount="indefinite" attributeName="d" dur="2.033s" begin="0s" calcMode="spline" values="M9,9.75C9,9.75,9,-6.75,9,-6.75C9,-8.407,7.657,-9.75,6,-9.75C6,-9.75,0,-9.75,0,-9.75C0,-9.75,-6,-9.75,-6,-9.75C-7.657,-9.75,-9,-8.407,-9,-6.75C-9,-6.75,-9,9.75,-9,9.75; M9,9.75C9,9.75,9,-6.75,9,-6.75C9,-8.407,7.657,-9.75,6,-9.75C6,-9.75,0,-9.75,0,-9.75C0,-9.75,-6,-9.75,-6,-9.75C-7.657,-9.75,-9,-8.407,-9,-6.75C-9,-6.75,-9,9.75,-9,9.75; M15.25,-1.974C15.25,-1.974,14.875,-1.726,14.167,-1.355C13.459,-0.984,12.419,-0.489,11.088,0.005C9.757,0.499,8.135,0.994,6.265,1.363C4.395,1.732,2.277,1.978,-0.048,1.974C-4.399,1.968,-8.199,0.98,-10.912,-0.005C-13.625,-0.99,-15.25,-1.974,-15.25,-1.974; M15.25,-5.724C15.25,-5.724,14.875,-5.476,14.167,-5.105C13.459,-4.734,12.419,-4.239,11.088,-3.745C9.757,-3.251,8.135,-2.756,6.265,-2.387C4.395,-2.018,2.277,-1.772,-0.048,-1.776C-4.399,-1.782,-8.199,-2.77,-10.912,-3.755C-13.625,-4.74,-15.25,-5.724,-15.25,-5.724; M9,9.75C9,9.75,9,-6.75,9,-6.75C9,-8.407,7.657,-9.75,6,-9.75C6,-9.75,0,-9.75,0,-9.75C0,-9.75,-6,-9.75,-6,-9.75C-7.657,-9.75,-9,-8.407,-9,-6.75C-9,-6.75,-9,9.75,-9,9.75; M9,9.75C9,9.75,9,-6.75,9,-6.75C9,-8.407,7.657,-9.75,6,-9.75C6,-9.75,0,-9.75,0,-9.75C0,-9.75,-6,-9.75,-6,-9.75C-7.657,-9.75,-9,-8.407,-9,-6.75C-9,-6.75,-9,9.75,-9,9.75" keyTimes="0; 0.286885; 0.352459; 0.631148; 0.696721; 1" keySplines="0 0 1 1; 0.735 0 0.265 0.48; 0.454 1 0.194 1; 0.167 0 0.833 1; 0 0 1 1" fill="freeze" /></path></g></g></g></g></g></g><g id="i0"><g transform="translate(240,243.107)"><g transform="scale(1,1)"><animateTransform repeatCount="indefinite" type="scale" attributeName="transform" dur="2.033s" begin="0s" calcMode="spline" values="1 1; 1 1; 0.8 0.8; 1 1; 1 1" keyTimes="0; 0.081967; 0.483607; 0.90164; 1" keySplines="0 0 1 1; 0.239 0 0.922 1; 0.092 0 0.803 1; 0 0 1 1" fill="freeze" /><g transform="translate(0,0)"><g id="i0" transform="matrix(4,0,0,4,0,0)"><path stroke-width="3" stroke="#ff8e3a" d="M-23.145,-9.328C-24.63,-8.193,-25.5,-6.431,-25.5,-4.562C-25.5,-4.562,-25.5,19.473,-25.5,19.473C-25.5,22.787,-22.814,25.473,-19.5,25.473C-19.5,25.473,19.5,25.473,19.5,25.473C22.814,25.473,25.5,22.787,25.5,19.473C25.5,19.473,25.5,-4.562,25.5,-4.562C25.5,-6.431,24.63,-8.193,23.145,-9.328C23.145,-9.328,3.645,-24.24,3.645,-24.24C1.494,-25.885,-1.494,-25.885,-3.645,-24.24C-3.645,-24.24,-23.145,-9.328,-23.145,-9.328Z" /></g></g></g></g></g></svg>